<mxfile host="app.diagrams.net" agent="Mozilla/5.0 (Windows NT 10.0; Win64; x64; rv:132.0) Gecko/20100101 Firefox/132.0" version="24.9.2">
  <diagram name="Page-1" id="MMNioimBdl7Tk3mcpDnN">
    <mxGraphModel dx="880" dy="461" grid="1" gridSize="10" guides="1" tooltips="1" connect="1" arrows="1" fold="1" page="1" pageScale="1" pageWidth="827" pageHeight="1169" background="none" math="0" shadow="0">
      <root>
        <mxCell id="0" />
        <mxCell id="1" parent="0" />
        <mxCell id="wsASDJIR-HjMpkAcvH_e-9" value="NormGroup" style="swimlane;fontStyle=0;childLayout=stackLayout;horizontal=1;startSize=30;horizontalStack=0;resizeParent=1;resizeParentMax=0;resizeLast=0;collapsible=1;marginBottom=0;whiteSpace=wrap;html=1;" parent="1" vertex="1">
          <mxGeometry x="300" y="150" width="190" height="180" as="geometry" />
        </mxCell>
        <mxCell id="wsASDJIR-HjMpkAcvH_e-14" value="ID" style="text;strokeColor=none;fillColor=none;align=left;verticalAlign=middle;spacingLeft=4;spacingRight=4;overflow=hidden;points=[[0,0.5],[1,0.5]];portConstraint=eastwest;rotatable=0;whiteSpace=wrap;html=1;" parent="wsASDJIR-HjMpkAcvH_e-9" vertex="1">
          <mxGeometry y="30" width="190" height="30" as="geometry" />
        </mxCell>
        <mxCell id="lNo956zUemrMfDcmQZYj-1" value="Name" style="text;strokeColor=none;fillColor=none;align=left;verticalAlign=middle;spacingLeft=4;spacingRight=4;overflow=hidden;points=[[0,0.5],[1,0.5]];portConstraint=eastwest;rotatable=0;whiteSpace=wrap;html=1;" parent="wsASDJIR-HjMpkAcvH_e-9" vertex="1">
          <mxGeometry y="60" width="190" height="30" as="geometry" />
        </mxCell>
        <mxCell id="wsASDJIR-HjMpkAcvH_e-15" value="MaxExpectedProcessingTime" style="text;strokeColor=none;fillColor=none;align=left;verticalAlign=middle;spacingLeft=4;spacingRight=4;overflow=hidden;points=[[0,0.5],[1,0.5]];portConstraint=eastwest;rotatable=0;whiteSpace=wrap;html=1;" parent="wsASDJIR-HjMpkAcvH_e-9" vertex="1">
          <mxGeometry y="90" width="190" height="30" as="geometry" />
        </mxCell>
        <mxCell id="wsASDJIR-HjMpkAcvH_e-18" value="Priority" style="text;strokeColor=none;fillColor=none;align=left;verticalAlign=middle;spacingLeft=4;spacingRight=4;overflow=hidden;points=[[0,0.5],[1,0.5]];portConstraint=eastwest;rotatable=0;whiteSpace=wrap;html=1;" parent="wsASDJIR-HjMpkAcvH_e-9" vertex="1">
          <mxGeometry y="120" width="190" height="30" as="geometry" />
        </mxCell>
        <mxCell id="wsASDJIR-HjMpkAcvH_e-16" value="IsEnabled" style="text;strokeColor=none;fillColor=none;align=left;verticalAlign=middle;spacingLeft=4;spacingRight=4;overflow=hidden;points=[[0,0.5],[1,0.5]];portConstraint=eastwest;rotatable=0;whiteSpace=wrap;html=1;" parent="wsASDJIR-HjMpkAcvH_e-9" vertex="1">
          <mxGeometry y="150" width="190" height="30" as="geometry" />
        </mxCell>
        <mxCell id="0H5FSKImAkvyDgZ1J1Ej-1" value="Norm" style="swimlane;fontStyle=0;childLayout=stackLayout;horizontal=1;startSize=30;horizontalStack=0;resizeParent=1;resizeParentMax=0;resizeLast=0;collapsible=1;marginBottom=0;whiteSpace=wrap;html=1;" parent="1" vertex="1">
          <mxGeometry x="345" y="425" width="100" height="150" as="geometry" />
        </mxCell>
        <mxCell id="0H5FSKImAkvyDgZ1J1Ej-2" value="ID" style="text;strokeColor=none;fillColor=none;align=left;verticalAlign=middle;spacingLeft=4;spacingRight=4;overflow=hidden;points=[[0,0.5],[1,0.5]];portConstraint=eastwest;rotatable=0;whiteSpace=wrap;html=1;" parent="0H5FSKImAkvyDgZ1J1Ej-1" vertex="1">
          <mxGeometry y="30" width="100" height="30" as="geometry" />
        </mxCell>
        <mxCell id="0H5FSKImAkvyDgZ1J1Ej-3" value="Name" style="text;strokeColor=none;fillColor=none;align=left;verticalAlign=middle;spacingLeft=4;spacingRight=4;overflow=hidden;points=[[0,0.5],[1,0.5]];portConstraint=eastwest;rotatable=0;whiteSpace=wrap;html=1;" parent="0H5FSKImAkvyDgZ1J1Ej-1" vertex="1">
          <mxGeometry y="60" width="100" height="30" as="geometry" />
        </mxCell>
        <mxCell id="0H5FSKImAkvyDgZ1J1Ej-4" value="Condition" style="text;strokeColor=none;fillColor=none;align=left;verticalAlign=middle;spacingLeft=4;spacingRight=4;overflow=hidden;points=[[0,0.5],[1,0.5]];portConstraint=eastwest;rotatable=0;whiteSpace=wrap;html=1;" parent="0H5FSKImAkvyDgZ1J1Ej-1" vertex="1">
          <mxGeometry y="90" width="100" height="30" as="geometry" />
        </mxCell>
        <mxCell id="wG5HZP7irT1eMEdLmAKS-3" value="Format" style="text;strokeColor=none;fillColor=none;align=left;verticalAlign=middle;spacingLeft=4;spacingRight=4;overflow=hidden;points=[[0,0.5],[1,0.5]];portConstraint=eastwest;rotatable=0;whiteSpace=wrap;html=1;" parent="0H5FSKImAkvyDgZ1J1Ej-1" vertex="1">
          <mxGeometry y="120" width="100" height="30" as="geometry" />
        </mxCell>
        <mxCell id="0H5FSKImAkvyDgZ1J1Ej-7" value="SeverityHistory" style="swimlane;fontStyle=0;childLayout=stackLayout;horizontal=1;startSize=30;horizontalStack=0;resizeParent=1;resizeParentMax=0;resizeLast=0;collapsible=1;marginBottom=0;whiteSpace=wrap;html=1;" parent="1" vertex="1">
          <mxGeometry x="526" y="420" width="120" height="90" as="geometry" />
        </mxCell>
        <mxCell id="0H5FSKImAkvyDgZ1J1Ej-8" value="ID" style="text;strokeColor=none;fillColor=none;align=left;verticalAlign=middle;spacingLeft=4;spacingRight=4;overflow=hidden;points=[[0,0.5],[1,0.5]];portConstraint=eastwest;rotatable=0;whiteSpace=wrap;html=1;" parent="0H5FSKImAkvyDgZ1J1Ej-7" vertex="1">
          <mxGeometry y="30" width="120" height="30" as="geometry" />
        </mxCell>
        <mxCell id="0H5FSKImAkvyDgZ1J1Ej-9" value="Date" style="text;strokeColor=none;fillColor=none;align=left;verticalAlign=middle;spacingLeft=4;spacingRight=4;overflow=hidden;points=[[0,0.5],[1,0.5]];portConstraint=eastwest;rotatable=0;whiteSpace=wrap;html=1;" parent="0H5FSKImAkvyDgZ1J1Ej-7" vertex="1">
          <mxGeometry y="60" width="120" height="30" as="geometry" />
        </mxCell>
        <mxCell id="0H5FSKImAkvyDgZ1J1Ej-27" style="edgeStyle=orthogonalEdgeStyle;rounded=0;orthogonalLoop=1;jettySize=auto;html=1;entryX=0;entryY=0.5;entryDx=0;entryDy=0;endArrow=none;endFill=0;" parent="1" source="0H5FSKImAkvyDgZ1J1Ej-30" edge="1">
          <mxGeometry relative="1" as="geometry">
            <mxPoint x="526.0000000000002" y="510" as="targetPoint" />
            <Array as="points">
              <mxPoint x="496" y="465" />
              <mxPoint x="526" y="465" />
            </Array>
          </mxGeometry>
        </mxCell>
        <mxCell id="0H5FSKImAkvyDgZ1J1Ej-31" value="1-1" style="edgeLabel;html=1;align=center;verticalAlign=middle;resizable=0;points=[];" parent="0H5FSKImAkvyDgZ1J1Ej-27" vertex="1" connectable="0">
          <mxGeometry x="0.2674" y="-1" relative="1" as="geometry">
            <mxPoint x="-18" y="-1" as="offset" />
          </mxGeometry>
        </mxCell>
        <mxCell id="0H5FSKImAkvyDgZ1J1Ej-11" value="Severity" style="swimlane;fontStyle=0;childLayout=stackLayout;horizontal=1;startSize=30;horizontalStack=0;resizeParent=1;resizeParentMax=0;resizeLast=0;collapsible=1;marginBottom=0;whiteSpace=wrap;html=1;" parent="1" vertex="1">
          <mxGeometry x="436" y="605" width="120" height="90" as="geometry" />
        </mxCell>
        <mxCell id="0H5FSKImAkvyDgZ1J1Ej-12" value="ID" style="text;strokeColor=none;fillColor=none;align=left;verticalAlign=middle;spacingLeft=4;spacingRight=4;overflow=hidden;points=[[0,0.5],[1,0.5]];portConstraint=eastwest;rotatable=0;whiteSpace=wrap;html=1;" parent="0H5FSKImAkvyDgZ1J1Ej-11" vertex="1">
          <mxGeometry y="30" width="120" height="30" as="geometry" />
        </mxCell>
        <mxCell id="0H5FSKImAkvyDgZ1J1Ej-13" value="Name" style="text;strokeColor=none;fillColor=none;align=left;verticalAlign=middle;spacingLeft=4;spacingRight=4;overflow=hidden;points=[[0,0.5],[1,0.5]];portConstraint=eastwest;rotatable=0;whiteSpace=wrap;html=1;" parent="0H5FSKImAkvyDgZ1J1Ej-11" vertex="1">
          <mxGeometry y="60" width="120" height="30" as="geometry" />
        </mxCell>
        <mxCell id="0H5FSKImAkvyDgZ1J1Ej-28" style="edgeStyle=orthogonalEdgeStyle;rounded=0;orthogonalLoop=1;jettySize=auto;html=1;entryX=1;entryY=0.5;entryDx=0;entryDy=0;endArrow=none;endFill=0;" parent="1" source="0H5FSKImAkvyDgZ1J1Ej-15" edge="1">
          <mxGeometry relative="1" as="geometry">
            <mxPoint x="646.0000000000002" y="510" as="targetPoint" />
            <Array as="points">
              <mxPoint x="696" y="475" />
              <mxPoint x="647" y="475" />
              <mxPoint x="647" y="510" />
            </Array>
          </mxGeometry>
        </mxCell>
        <mxCell id="0H5FSKImAkvyDgZ1J1Ej-36" value="1-1" style="edgeLabel;html=1;align=center;verticalAlign=middle;resizable=0;points=[];" parent="0H5FSKImAkvyDgZ1J1Ej-28" vertex="1" connectable="0">
          <mxGeometry x="-0.6854" y="-2" relative="1" as="geometry">
            <mxPoint y="13" as="offset" />
          </mxGeometry>
        </mxCell>
        <mxCell id="0H5FSKImAkvyDgZ1J1Ej-37" value="1-1" style="edgeLabel;html=1;align=center;verticalAlign=middle;resizable=0;points=[];" parent="0H5FSKImAkvyDgZ1J1Ej-28" vertex="1" connectable="0">
          <mxGeometry x="0.6703" y="-2" relative="1" as="geometry">
            <mxPoint x="21" y="-10" as="offset" />
          </mxGeometry>
        </mxCell>
        <mxCell id="0H5FSKImAkvyDgZ1J1Ej-15" value="UserEntity" style="swimlane;fontStyle=0;childLayout=stackLayout;horizontal=1;startSize=30;horizontalStack=0;resizeParent=1;resizeParentMax=0;resizeLast=0;collapsible=1;marginBottom=0;whiteSpace=wrap;html=1;" parent="1" vertex="1">
          <mxGeometry x="636" y="605" width="120" height="90" as="geometry" />
        </mxCell>
        <mxCell id="0H5FSKImAkvyDgZ1J1Ej-16" value="ID" style="text;strokeColor=none;fillColor=none;align=left;verticalAlign=middle;spacingLeft=4;spacingRight=4;overflow=hidden;points=[[0,0.5],[1,0.5]];portConstraint=eastwest;rotatable=0;whiteSpace=wrap;html=1;" parent="0H5FSKImAkvyDgZ1J1Ej-15" vertex="1">
          <mxGeometry y="30" width="120" height="30" as="geometry" />
        </mxCell>
        <mxCell id="0H5FSKImAkvyDgZ1J1Ej-17" value="Name" style="text;strokeColor=none;fillColor=none;align=left;verticalAlign=middle;spacingLeft=4;spacingRight=4;overflow=hidden;points=[[0,0.5],[1,0.5]];portConstraint=eastwest;rotatable=0;whiteSpace=wrap;html=1;" parent="0H5FSKImAkvyDgZ1J1Ej-15" vertex="1">
          <mxGeometry y="60" width="120" height="30" as="geometry" />
        </mxCell>
        <mxCell id="0H5FSKImAkvyDgZ1J1Ej-18" style="edgeStyle=orthogonalEdgeStyle;rounded=0;orthogonalLoop=1;jettySize=auto;html=1;entryX=0.5;entryY=1.026;entryDx=0;entryDy=0;entryPerimeter=0;endArrow=none;endFill=0;" parent="1" source="0H5FSKImAkvyDgZ1J1Ej-1" target="wsASDJIR-HjMpkAcvH_e-16" edge="1">
          <mxGeometry relative="1" as="geometry" />
        </mxCell>
        <mxCell id="0H5FSKImAkvyDgZ1J1Ej-20" value="1-N" style="edgeLabel;html=1;align=center;verticalAlign=middle;resizable=0;points=[];" parent="0H5FSKImAkvyDgZ1J1Ej-18" vertex="1" connectable="0">
          <mxGeometry x="0.7074" relative="1" as="geometry">
            <mxPoint as="offset" />
          </mxGeometry>
        </mxCell>
        <mxCell id="0H5FSKImAkvyDgZ1J1Ej-21" value="1-1" style="edgeLabel;html=1;align=center;verticalAlign=middle;resizable=0;points=[];" parent="0H5FSKImAkvyDgZ1J1Ej-18" vertex="1" connectable="0">
          <mxGeometry x="-0.6745" relative="1" as="geometry">
            <mxPoint as="offset" />
          </mxGeometry>
        </mxCell>
        <mxCell id="0H5FSKImAkvyDgZ1J1Ej-19" value="has v" style="shape=hexagon;perimeter=hexagonPerimeter2;whiteSpace=wrap;html=1;fixedSize=1;" parent="1" vertex="1">
          <mxGeometry x="350" y="360" width="90" height="30" as="geometry" />
        </mxCell>
        <mxCell id="0H5FSKImAkvyDgZ1J1Ej-22" style="edgeStyle=orthogonalEdgeStyle;rounded=0;orthogonalLoop=1;jettySize=auto;html=1;entryX=0.5;entryY=0;entryDx=0;entryDy=0;endArrow=none;endFill=0;" parent="1" source="0H5FSKImAkvyDgZ1J1Ej-23" target="0H5FSKImAkvyDgZ1J1Ej-7" edge="1">
          <mxGeometry relative="1" as="geometry" />
        </mxCell>
        <mxCell id="0H5FSKImAkvyDgZ1J1Ej-26" value="1-1" style="edgeLabel;html=1;align=center;verticalAlign=middle;resizable=0;points=[];" parent="0H5FSKImAkvyDgZ1J1Ej-22" vertex="1" connectable="0">
          <mxGeometry x="0.0132" y="-2" relative="1" as="geometry">
            <mxPoint as="offset" />
          </mxGeometry>
        </mxCell>
        <mxCell id="0H5FSKImAkvyDgZ1J1Ej-24" value="" style="edgeStyle=orthogonalEdgeStyle;rounded=0;orthogonalLoop=1;jettySize=auto;html=1;entryX=0.5;entryY=0;entryDx=0;entryDy=0;endArrow=none;endFill=0;" parent="1" target="0H5FSKImAkvyDgZ1J1Ej-23" edge="1">
          <mxGeometry relative="1" as="geometry">
            <mxPoint x="501" y="240" as="sourcePoint" />
            <mxPoint x="596" y="295" as="targetPoint" />
            <Array as="points">
              <mxPoint x="596" y="240" />
            </Array>
          </mxGeometry>
        </mxCell>
        <mxCell id="0H5FSKImAkvyDgZ1J1Ej-25" value="1-N" style="edgeLabel;html=1;align=center;verticalAlign=middle;resizable=0;points=[];" parent="0H5FSKImAkvyDgZ1J1Ej-24" vertex="1" connectable="0">
          <mxGeometry x="-0.5684" y="1" relative="1" as="geometry">
            <mxPoint as="offset" />
          </mxGeometry>
        </mxCell>
        <mxCell id="0H5FSKImAkvyDgZ1J1Ej-23" value="has v" style="shape=hexagon;perimeter=hexagonPerimeter2;whiteSpace=wrap;html=1;fixedSize=1;" parent="1" vertex="1">
          <mxGeometry x="541" y="225" width="90" height="30" as="geometry" />
        </mxCell>
        <mxCell id="0H5FSKImAkvyDgZ1J1Ej-29" value="has v" style="shape=hexagon;perimeter=hexagonPerimeter2;whiteSpace=wrap;html=1;fixedSize=1;" parent="1" vertex="1">
          <mxGeometry x="651" y="535" width="90" height="30" as="geometry" />
        </mxCell>
        <mxCell id="0H5FSKImAkvyDgZ1J1Ej-33" value="" style="edgeStyle=orthogonalEdgeStyle;rounded=0;orthogonalLoop=1;jettySize=auto;html=1;entryX=0;entryY=0.5;entryDx=0;entryDy=0;endArrow=none;endFill=0;" parent="1" source="0H5FSKImAkvyDgZ1J1Ej-11" target="0H5FSKImAkvyDgZ1J1Ej-30" edge="1">
          <mxGeometry relative="1" as="geometry">
            <mxPoint x="496" y="605" as="sourcePoint" />
            <mxPoint x="526" y="510" as="targetPoint" />
            <Array as="points">
              <mxPoint x="496" y="560" />
            </Array>
          </mxGeometry>
        </mxCell>
        <mxCell id="0H5FSKImAkvyDgZ1J1Ej-35" value="1-1" style="edgeLabel;html=1;align=center;verticalAlign=middle;resizable=0;points=[];" parent="0H5FSKImAkvyDgZ1J1Ej-33" vertex="1" connectable="0">
          <mxGeometry x="-0.7582" y="1" relative="1" as="geometry">
            <mxPoint as="offset" />
          </mxGeometry>
        </mxCell>
        <mxCell id="0H5FSKImAkvyDgZ1J1Ej-30" value="has v" style="shape=hexagon;perimeter=hexagonPerimeter2;whiteSpace=wrap;html=1;fixedSize=1;" parent="1" vertex="1">
          <mxGeometry x="451" y="545" width="90" height="30" as="geometry" />
        </mxCell>
        <mxCell id="0H5FSKImAkvyDgZ1J1Ej-38" value="Information" style="swimlane;fontStyle=0;childLayout=stackLayout;horizontal=1;startSize=30;horizontalStack=0;resizeParent=1;resizeParentMax=0;resizeLast=0;collapsible=1;marginBottom=0;whiteSpace=wrap;html=1;" parent="1" vertex="1">
          <mxGeometry x="191" y="557.33" width="100" height="120" as="geometry" />
        </mxCell>
        <mxCell id="0H5FSKImAkvyDgZ1J1Ej-39" value="ID" style="text;strokeColor=none;fillColor=none;align=left;verticalAlign=middle;spacingLeft=4;spacingRight=4;overflow=hidden;points=[[0,0.5],[1,0.5]];portConstraint=eastwest;rotatable=0;whiteSpace=wrap;html=1;" parent="0H5FSKImAkvyDgZ1J1Ej-38" vertex="1">
          <mxGeometry y="30" width="100" height="30" as="geometry" />
        </mxCell>
        <mxCell id="0H5FSKImAkvyDgZ1J1Ej-47" value="Type" style="text;strokeColor=none;fillColor=none;align=left;verticalAlign=middle;spacingLeft=4;spacingRight=4;overflow=hidden;points=[[0,0.5],[1,0.5]];portConstraint=eastwest;rotatable=0;whiteSpace=wrap;html=1;" parent="0H5FSKImAkvyDgZ1J1Ej-38" vertex="1">
          <mxGeometry y="60" width="100" height="30" as="geometry" />
        </mxCell>
        <mxCell id="uleIAX_Mq-Kg9tYcrI_u-10" style="edgeStyle=orthogonalEdgeStyle;rounded=0;orthogonalLoop=1;jettySize=auto;html=1;entryX=0;entryY=0.5;entryDx=0;entryDy=0;endArrow=none;endFill=0;" parent="0H5FSKImAkvyDgZ1J1Ej-38" source="0H5FSKImAkvyDgZ1J1Ej-48" target="0H5FSKImAkvyDgZ1J1Ej-39" edge="1">
          <mxGeometry relative="1" as="geometry">
            <Array as="points">
              <mxPoint x="-70" y="105" />
              <mxPoint x="-70" y="45" />
            </Array>
          </mxGeometry>
        </mxCell>
        <mxCell id="uleIAX_Mq-Kg9tYcrI_u-12" value="0-N" style="edgeLabel;html=1;align=center;verticalAlign=middle;resizable=0;points=[];" parent="uleIAX_Mq-Kg9tYcrI_u-10" vertex="1" connectable="0">
          <mxGeometry x="-0.67" y="-1" relative="1" as="geometry">
            <mxPoint as="offset" />
          </mxGeometry>
        </mxCell>
        <mxCell id="uleIAX_Mq-Kg9tYcrI_u-13" value="1-1" style="edgeLabel;html=1;align=center;verticalAlign=middle;resizable=0;points=[];" parent="uleIAX_Mq-Kg9tYcrI_u-10" vertex="1" connectable="0">
          <mxGeometry x="0.64" y="-2" relative="1" as="geometry">
            <mxPoint as="offset" />
          </mxGeometry>
        </mxCell>
        <mxCell id="0H5FSKImAkvyDgZ1J1Ej-48" value="Valeur [0-1]" style="text;strokeColor=none;fillColor=none;align=left;verticalAlign=middle;spacingLeft=4;spacingRight=4;overflow=hidden;points=[[0,0.5],[1,0.5]];portConstraint=eastwest;rotatable=0;whiteSpace=wrap;html=1;" parent="0H5FSKImAkvyDgZ1J1Ej-38" vertex="1">
          <mxGeometry y="90" width="100" height="30" as="geometry" />
        </mxCell>
        <mxCell id="0H5FSKImAkvyDgZ1J1Ej-42" style="edgeStyle=orthogonalEdgeStyle;rounded=0;orthogonalLoop=1;jettySize=auto;html=1;entryX=0.5;entryY=0;entryDx=0;entryDy=0;endArrow=none;endFill=0;" parent="1" source="0H5FSKImAkvyDgZ1J1Ej-43" target="0H5FSKImAkvyDgZ1J1Ej-38" edge="1">
          <mxGeometry relative="1" as="geometry" />
        </mxCell>
        <mxCell id="0H5FSKImAkvyDgZ1J1Ej-46" value="1-N" style="edgeLabel;html=1;align=center;verticalAlign=middle;resizable=0;points=[];" parent="0H5FSKImAkvyDgZ1J1Ej-42" vertex="1" connectable="0">
          <mxGeometry x="0.19" y="-1" relative="1" as="geometry">
            <mxPoint as="offset" />
          </mxGeometry>
        </mxCell>
        <mxCell id="0H5FSKImAkvyDgZ1J1Ej-44" value="" style="edgeStyle=orthogonalEdgeStyle;rounded=0;orthogonalLoop=1;jettySize=auto;html=1;entryX=0.5;entryY=0;entryDx=0;entryDy=0;endArrow=none;endFill=0;" parent="1" source="0H5FSKImAkvyDgZ1J1Ej-3" target="0H5FSKImAkvyDgZ1J1Ej-43" edge="1">
          <mxGeometry relative="1" as="geometry">
            <mxPoint x="356" y="502.33" as="sourcePoint" />
            <mxPoint x="241" y="557.33" as="targetPoint" />
            <Array as="points">
              <mxPoint x="241" y="502.33" />
            </Array>
          </mxGeometry>
        </mxCell>
        <mxCell id="0H5FSKImAkvyDgZ1J1Ej-45" value="1-1" style="edgeLabel;html=1;align=center;verticalAlign=middle;resizable=0;points=[];" parent="0H5FSKImAkvyDgZ1J1Ej-44" vertex="1" connectable="0">
          <mxGeometry x="-0.5607" y="2" relative="1" as="geometry">
            <mxPoint as="offset" />
          </mxGeometry>
        </mxCell>
        <mxCell id="0H5FSKImAkvyDgZ1J1Ej-43" value="is linked to v" style="shape=hexagon;perimeter=hexagonPerimeter2;whiteSpace=wrap;html=1;fixedSize=1;" parent="1" vertex="1">
          <mxGeometry x="196" y="487.33" width="90" height="30" as="geometry" />
        </mxCell>
        <mxCell id="uleIAX_Mq-Kg9tYcrI_u-11" value="has ^" style="shape=hexagon;perimeter=hexagonPerimeter2;whiteSpace=wrap;html=1;fixedSize=1;" parent="1" vertex="1">
          <mxGeometry x="71" y="617.33" width="90" height="30" as="geometry" />
        </mxCell>
        <mxCell id="wG5HZP7irT1eMEdLmAKS-2" value="Create and Edit NormGroup" style="text;strokeColor=none;fillColor=none;html=1;fontSize=24;fontStyle=1;verticalAlign=middle;align=center;" parent="1" vertex="1">
          <mxGeometry x="247" y="50" width="334" height="30" as="geometry" />
        </mxCell>
      </root>
    </mxGraphModel>
  </diagram>
</mxfile>
